<svg width="16" height="16" viewBox="0 0 16 16" fill="none" xmlns="http://www.w3.org/2000/svg">
<path d="M13.25 2H10.5V1.5C10.5 0.671562 9.82844 0 9 0H7C6.17156 0 5.5 0.671562 5.5 1.5V2H2.75C2.05966 2 1.5 2.55966 1.5 3.25V4.25C1.5 4.52616 1.72384 4.75 2 4.75H14C14.2762 4.75 14.5 4.52616 14.5 4.25V3.25C14.5 2.55966 13.9403 2 13.25 2ZM6.5 1.5C6.5 1.22438 6.72437 1 7 1H9C9.27563 1 9.5 1.22438 9.5 1.5V2H6.5V1.5Z" fill="white"/>
<path d="M2.44872 5.63892C2.35951 5.63892 2.28841 5.71348 2.29266 5.8026L2.70516 14.4602C2.74329 15.2614 3.40141 15.8889 4.20329 15.8889H11.7964C12.5983 15.8889 13.2564 15.2614 13.2945 14.4602L13.707 5.8026C13.7113 5.71348 13.6402 5.63892 13.551 5.63892H2.44872ZM9.99985 6.88892C9.99985 6.61267 10.2236 6.38892 10.4998 6.38892C10.7761 6.38892 10.9998 6.61267 10.9998 6.88892V13.3889C10.9998 13.6652 10.7761 13.8889 10.4998 13.8889C10.2236 13.8889 9.99985 13.6652 9.99985 13.3889V6.88892ZM7.49985 6.88892C7.49985 6.61267 7.7236 6.38892 7.99985 6.38892C8.2761 6.38892 8.49985 6.61267 8.49985 6.88892V13.3889C8.49985 13.6652 8.2761 13.8889 7.99985 13.8889C7.7236 13.8889 7.49985 13.6652 7.49985 13.3889V6.88892ZM4.99985 6.88892C4.99985 6.61267 5.2236 6.38892 5.49985 6.38892C5.7761 6.38892 5.99985 6.61267 5.99985 6.88892V13.3889C5.99985 13.6652 5.7761 13.8889 5.49985 13.8889C5.2236 13.8889 4.99985 13.6652 4.99985 13.3889V6.88892Z" fill="white"/>
</svg>
