<svg width="16" height="16" viewBox="0 0 16 16" fill="none" xmlns="http://www.w3.org/2000/svg">
<g clip-path="url(#clip0)">
<path d="M1.29285 6.6685C1.29285 8.46859 1.99019 10.1602 3.25647 11.4317L7.66854 15.8621C7.76004 15.954 7.88 16 7.99997 16C8.11994 16 8.23991 15.954 8.33141 15.8621L12.7435 11.4317C14.0098 10.1602 14.7071 8.46859 14.7071 6.6685C14.7071 -2.22691 1.29285 -2.21875 1.29285 6.6685ZM11.846 6.82422C11.663 7.00725 11.3662 7.00734 11.1831 6.82422L10.9791 6.62025V9.50528C10.9791 9.76415 10.7693 9.97403 10.5104 9.97403H5.48957C5.23069 9.97403 5.02082 9.76415 5.02082 9.50528V6.62025L4.81685 6.82422C4.63378 7.00725 4.33697 7.00731 4.15394 6.82422C3.97088 6.64118 3.97088 6.34437 4.15394 6.16131L7.66854 2.64678C7.85157 2.46375 8.14838 2.46375 8.33144 2.64678L11.846 6.16134C12.0291 6.34437 12.0291 6.64118 11.846 6.82422Z" fill="#3E64FF"/>
<path d="M6.52191 6.05078V8.34754H9.47787V6.05078L7.99989 4.65259L6.52191 6.05078Z" fill="#3E64FF"/>
<path d="M10.5104 15.0591H8.00005H5.48965C5.23078 15.0591 5.0209 15.269 5.0209 15.5278C5.0209 15.7867 5.23078 15.9966 5.48965 15.9966H8.00005H10.5104C10.7693 15.9966 10.9792 15.7867 10.9792 15.5278C10.9792 15.269 10.7693 15.0591 10.5104 15.0591Z" fill="#3E64FF"/>
</g>
<defs>
<clipPath id="clip0">
<rect width="16" height="16" fill="white"/>
</clipPath>
</defs>
</svg>
