<svg width="21" height="21" viewBox="0 0 21 21" fill="none" xmlns="http://www.w3.org/2000/svg">
<path d="M17.3906 2.625H13.7812V1.96875C13.7812 0.881426 12.8998 0 11.8125 0H9.1875C8.10018 0 7.21875 0.881426 7.21875 1.96875V2.625H3.60938C2.7033 2.625 1.96875 3.35955 1.96875 4.26562V5.57812C1.96875 5.94058 2.26254 6.23438 2.625 6.23438H18.375C18.7375 6.23438 19.0312 5.94058 19.0312 5.57812V4.26562C19.0312 3.35955 18.2967 2.625 17.3906 2.625ZM8.53125 1.96875C8.53125 1.60699 8.82574 1.3125 9.1875 1.3125H11.8125C12.1743 1.3125 12.4688 1.60699 12.4688 1.96875V2.625H8.53125V1.96875Z" fill="white"/>
<path d="M3.21484 7.40112C3.09774 7.40112 3.00443 7.49899 3.01 7.61596L3.55141 18.979C3.60145 20.0307 4.46524 20.8542 5.5177 20.8542H15.4837C16.5361 20.8542 17.3999 20.0307 17.45 18.979L17.9914 7.61596C17.997 7.49899 17.9036 7.40112 17.7865 7.40112H3.21484ZM13.1257 9.04175C13.1257 8.67917 13.4194 8.3855 13.7819 8.3855C14.1445 8.3855 14.4382 8.67917 14.4382 9.04175V17.573C14.4382 17.9356 14.1445 18.2292 13.7819 18.2292C13.4194 18.2292 13.1257 17.9356 13.1257 17.573V9.04175ZM9.84444 9.04175C9.84444 8.67917 10.1381 8.3855 10.5007 8.3855C10.8633 8.3855 11.1569 8.67917 11.1569 9.04175V17.573C11.1569 17.9356 10.8633 18.2292 10.5007 18.2292C10.1381 18.2292 9.84444 17.9356 9.84444 17.573V9.04175ZM6.56319 9.04175C6.56319 8.67917 6.85686 8.3855 7.21944 8.3855C7.58202 8.3855 7.87569 8.67917 7.87569 9.04175V17.573C7.87569 17.9356 7.58202 18.2292 7.21944 18.2292C6.85686 18.2292 6.56319 17.9356 6.56319 17.573V9.04175Z" fill="white"/>
</svg>
