<svg width="18" height="18" viewBox="0 0 18 18" fill="none" xmlns="http://www.w3.org/2000/svg">
<g clip-path="url(#clip0)">
<path d="M17.0145 7.59478H17.0156H10.4062V0.997855C10.4062 0.454928 9.96658 0.000976562 9.42366 0.000976562H8.57795C8.03517 0.000976562 7.59366 0.454928 7.59366 0.997855V7.59478H0.984439C0.441805 7.59478 0 8.03381 0 8.57688V9.42741C0 9.97005 0.441659 10.4072 0.984439 10.4072H7.5938V17.028C7.5938 17.5706 8.03517 18.0008 8.5781 18.0008H9.42381C9.96673 18.0008 10.4063 17.5704 10.4063 17.028V10.4072H17.0145C17.5575 10.4072 18 9.9699 18 9.42741V8.57688C18 8.03381 17.5575 7.59478 17.0145 7.59478Z" fill="url(#paint0_linear)"/>
</g>
<defs>
<linearGradient id="paint0_linear" x1="-0.0480458" y1="0.000976657" x2="17.9515" y2="18.0968" gradientUnits="userSpaceOnUse">
<stop stop-color="white"/>
<stop offset="1" stop-color="white" stop-opacity="0.5"/>
</linearGradient>
<clipPath id="clip0">
<rect width="18" height="18" fill="white"/>
</clipPath>
</defs>
</svg>
