<svg width="30" height="30" viewBox="0 0 30 30" fill="none" xmlns="http://www.w3.org/2000/svg">
<path d="M28.8285 7.17159C28.0472 6.3904 27.1047 5.99969 26.0005 5.99969H22.5005L21.7037 3.87482C21.5057 3.36448 21.1439 2.92431 20.6176 2.55434C20.0915 2.18455 19.5525 1.99951 19.0003 1.99951H11.0001C10.448 1.99951 9.9089 2.18455 9.3828 2.55434C8.8567 2.92431 8.49483 3.36448 8.29688 3.87482L7.50004 5.99969H4.00002C2.89566 5.99969 1.95313 6.3904 1.17178 7.17159C0.390594 7.95283 0 8.89546 0 9.99971V23.9999C0 25.1042 0.390594 26.0469 1.17178 26.8279C1.95313 27.6093 2.89572 28 4.00002 28H26.0001C27.1043 28 28.0468 27.6093 28.8282 26.8279C29.6093 26.0469 30 25.1042 30 23.9999V9.99971C30.0002 8.89546 29.6095 7.95283 28.8285 7.17159ZM19.9454 21.9453C18.5756 23.3152 16.9273 24.0002 15.0001 24.0002C13.0728 24.0002 11.4246 23.3152 10.0547 21.9453C8.68485 20.5757 8.00004 18.927 8.00004 17.0002C8.00004 15.0728 8.68507 13.4246 10.0547 12.0548C11.4245 10.6849 13.0729 10 15.0001 10C16.9273 10 18.5756 10.685 19.9454 12.0548C21.3153 13.4245 22.0002 15.0728 22.0002 17.0002C22.0002 18.927 21.3153 20.5755 19.9454 21.9453Z" fill="white"/>
<path d="M15.0002 12.5C13.7605 12.5 12.7006 12.9401 11.8204 13.8205C10.9401 14.7007 10.5 15.7605 10.5 17.0004C10.5 18.2398 10.9401 19.2997 11.8204 20.18C12.7006 21.0601 13.7605 21.5002 15.0002 21.5002C16.2397 21.5002 17.2997 21.0601 18.1799 20.18C19.0602 19.2997 19.5004 18.2399 19.5004 17.0004C19.5004 15.7605 19.0602 14.7008 18.1799 13.8205C17.2997 12.9402 16.2397 12.5 15.0002 12.5Z" fill="white"/>
</svg>
