<svg width="18" height="18" viewBox="0 0 18 18" fill="none" xmlns="http://www.w3.org/2000/svg">
<g clip-path="url(#clip0)">
<path d="M13.3418 5.80474C13.1884 5.65122 12.9168 5.65122 12.7634 5.80474L4.98229 13.5924C4.88921 13.6856 4.84687 13.8175 4.86762 13.9475C4.88879 14.0774 4.97109 14.1893 5.08853 14.2481L5.72732 14.568V15.6437L3.77018 16.2037L1.79466 14.2265L2.35422 12.2677H3.42903L3.74862 12.907C3.80734 13.0246 3.91921 13.107 4.04903 13.1281C4.07101 13.1317 4.09298 13.1333 4.11454 13.1333C4.222 13.1333 4.32666 13.0909 4.40379 13.0134L12.1849 5.22574C12.2616 5.14896 12.3047 5.04503 12.3047 4.93626C12.3047 4.82749 12.2616 4.72356 12.1849 4.64678L10.6804 3.14096C10.6037 3.06418 10.4998 3.021 10.3911 3.021H10.3903C10.2812 3.02138 10.177 3.06499 10.1007 3.14215L1.75512 11.57C1.75109 11.5741 1.75129 11.5804 1.74741 11.5845C1.70542 11.6299 1.67036 11.6823 1.65203 11.7459L0.941712 14.2333L0.0157015 17.4781C-0.0250667 17.6208 0.0148962 17.7748 0.119981 17.8799C0.197874 17.9579 0.302153 17.9999 0.409232 17.9999C0.446779 17.9999 0.484325 17.9947 0.521488 17.9843L3.76343 17.0575L6.24871 16.3465C6.25619 16.3444 6.26133 16.3387 6.26866 16.3362C6.29447 16.3273 6.31706 16.3128 6.3408 16.2987C6.36412 16.2849 6.38743 16.2726 6.40715 16.2548C6.41244 16.2501 6.41938 16.2484 6.42448 16.2434L14.8452 7.89071C14.9223 7.81435 14.9658 7.70999 14.9662 7.60084C14.9666 7.49208 14.9234 7.38772 14.8464 7.31056L13.3418 5.80474Z" fill="white"/>
<path d="M17.5206 2.92112L15.0661 0.46452C14.4477 -0.154444 13.3718 -0.155633 12.751 0.465709L11.2524 1.97912C11.0939 2.13947 11.0942 2.39735 11.2536 2.55689L15.43 6.73681C15.5099 6.81677 15.6146 6.85677 15.7193 6.85677C15.8235 6.85677 15.9274 6.81719 16.0073 6.73803L17.5206 5.23705C17.8298 4.92759 18 4.51653 18 4.07912C18 3.64172 17.8299 3.23059 17.5206 2.92112Z" fill="white"/>
</g>
<defs>
<clipPath id="clip0">
<rect width="18" height="18" fill="white"/>
</clipPath>
</defs>
</svg>
