<svg width="20" height="20" viewBox="0 0 20 20" fill="none" xmlns="http://www.w3.org/2000/svg">
<g clip-path="url(#clip0)">
<path fill-rule="evenodd" clip-rule="evenodd" d="M2.98113 4.59729L0.90887 2.52504L2.0677 1.36621L18.1777 17.4807L17.0189 18.635L14.3695 15.9811L13.9832 15.5948C12.7517 16.0901 11.4065 16.3628 9.99774 16.3628C5.45331 16.3628 1.57238 13.5362 0 9.54617C0.70893 7.74206 1.89502 6.18331 3.39468 5.01085L2.98113 4.59729ZM7.33926 8.95087L5.93503 7.54664C5.6351 8.15558 5.45331 8.82817 5.45331 9.54617C5.45331 12.0547 7.48922 14.0906 9.99774 14.0906C10.7158 14.0906 11.3883 13.9088 11.9928 13.6089L10.5885 12.2047C10.3977 12.2456 10.2022 12.2728 9.99774 12.2728C8.49352 12.2728 7.27109 11.0504 7.27109 9.54617C7.27109 9.34167 7.29836 9.14629 7.33926 8.95087ZM9.99782 5.00169C12.5063 5.00169 14.5422 7.0376 14.5422 9.54612C14.5422 10.1324 14.4241 10.6913 14.2196 11.2048L16.8781 13.8633C18.2505 12.7181 19.3321 11.2366 20.0001 9.54612C18.4232 5.55614 14.5468 2.72949 9.99786 2.72949C8.72541 2.72949 7.50754 2.9567 6.37598 3.3657L8.33916 5.32433C8.85262 5.12439 9.41159 5.00169 9.99782 5.00169ZM9.8479 6.83297L12.7109 9.69596L12.7245 9.54599C12.7245 8.04177 11.5021 6.81934 9.99787 6.81934L9.8479 6.83297Z" fill="url(#paint0_linear)"/>
</g>
<defs>
<linearGradient id="paint0_linear" x1="-0.0533844" y1="1.36621" x2="17.0174" y2="21.2425" gradientUnits="userSpaceOnUse">
<stop stop-color="white"/>
<stop offset="1" stop-color="white" stop-opacity="0.5"/>
</linearGradient>
<clipPath id="clip0">
<rect width="20" height="20" fill="white"/>
</clipPath>
</defs>
</svg>
