<svg width="24" height="24" viewBox="0 0 24 24" fill="none" xmlns="http://www.w3.org/2000/svg">
<g clip-path="url(#clip0)">
<path d="M23.2015 5.49814C22.7224 4.99624 22.0608 4.69966 21.308 4.69966H17.5209V4.65404C17.5209 4.08369 17.2928 3.53616 16.9049 3.17115C16.5171 2.78331 15.9924 2.55518 15.4221 2.55518H8.57795C7.98479 2.55518 7.46008 2.78331 7.07224 3.17115C6.68441 3.55898 6.45627 4.08369 6.45627 4.65404V4.69966H2.69202C1.93916 4.69966 1.27757 4.99624 0.798479 5.49814C0.319392 5.97723 0 6.66164 0 7.39168V18.7529C0 19.5057 0.296578 20.1673 0.798479 20.6464C1.27757 21.1255 1.96198 21.4449 2.69202 21.4449H21.308C22.0608 21.4449 22.7224 21.1483 23.2015 20.6464C23.6806 20.1673 24 19.4829 24 18.7529V7.39168C24 6.63883 23.7034 5.97723 23.2015 5.49814ZM22.8137 18.7529H22.7909C22.7909 19.1635 22.6312 19.5286 22.3574 19.8023C22.0837 20.0761 21.7186 20.2358 21.308 20.2358H2.69202C2.28137 20.2358 1.91635 20.0761 1.64259 19.8023C1.36882 19.5286 1.20913 19.1635 1.20913 18.7529V7.39168C1.20913 6.98103 1.36882 6.61601 1.64259 6.34225C1.91635 6.06848 2.28137 5.90879 2.69202 5.90879H7.09506C7.43726 5.90879 7.71103 5.63502 7.71103 5.29282V4.63122C7.71103 4.38027 7.80228 4.15213 7.96198 3.99244C8.12167 3.83274 8.34981 3.74149 8.60076 3.74149H15.4221C15.673 3.74149 15.9011 3.83274 16.0608 3.99244C16.2205 4.15213 16.3118 4.38027 16.3118 4.63122V5.29282C16.3118 5.63502 16.5856 5.90879 16.9278 5.90879H21.3308C21.7414 5.90879 22.1065 6.06848 22.3802 6.34225C22.654 6.61601 22.8137 6.98103 22.8137 7.39168V18.7529Z" fill="white"/>
<path d="M12 7.45996C10.4487 7.45996 9.03421 8.09875 8.0304 9.10255C7.00379 10.1292 6.38782 11.5208 6.38782 13.0721C6.38782 14.6235 7.0266 16.0379 8.0304 17.0417C9.05702 18.0683 10.4487 18.6843 12 18.6843C13.5513 18.6843 14.9658 18.0455 15.9696 17.0417C16.9962 16.0151 17.6122 14.6235 17.6122 13.0721C17.6122 11.5208 16.9734 10.1064 15.9696 9.10255C14.9658 8.09875 13.5513 7.45996 12 7.45996ZM15.1026 16.1976C14.3042 16.9733 13.2091 17.4752 12 17.4752C10.7909 17.4752 9.6958 16.9733 8.89732 16.1976C8.09884 15.3991 7.61976 14.3041 7.61976 13.095C7.61976 11.8858 8.12166 10.7908 8.89732 9.99228C9.6958 9.1938 10.7909 8.71472 12 8.71472C13.2091 8.71472 14.3042 9.21662 15.1026 9.99228C15.9011 10.7908 16.3802 11.8858 16.3802 13.095C16.403 14.3041 15.9011 15.3991 15.1026 16.1976Z" fill="white"/>
<path d="M20.1217 9.67275C20.739 9.67275 21.2395 9.17226 21.2395 8.55488C21.2395 7.9375 20.739 7.43701 20.1217 7.43701C19.5043 7.43701 19.0038 7.9375 19.0038 8.55488C19.0038 9.17226 19.5043 9.67275 20.1217 9.67275Z" fill="white"/>
</g>
<defs>
<clipPath id="clip0">
<rect width="24" height="24" fill="white"/>
</clipPath>
</defs>
</svg>
